<?xml version="1.0" encoding="utf-8"?>
<!-- Generator: Adobe Illustrator 25.4.1, SVG Export Plug-In . SVG Version: 6.00 Build 0)  -->
<svg version="1.1" id="Слой_1" xmlns="http://www.w3.org/2000/svg" xmlns:xlink="http://www.w3.org/1999/xlink" x="0px" y="0px"
	 viewBox="0 0 311.05 260" style="enable-background:new 0 0 311.05 260;" xml:space="preserve">
<style type="text/css">
	.st0{fill:none;stroke:#000000;stroke-width:4;stroke-miterlimit:10;}
	.st1{fill:none;}
</style>
<path class="st0" d="M82.23,73.34c2.79-3.55,6.73-8,12-12.51c2.32-1.99,9.69-8.09,19.66-12.77c4.48-2.1,21.82-9.69,43.4-7.4
	c33.49,3.55,53.21,28.32,56.94,33.19"/>
<path class="st0" d="M214.23,198.17c-2.79,3.55-6.73,8-12,12.51c-2.32,1.99-9.69,8.09-19.66,12.77c-4.48,2.1-21.82,9.69-43.4,7.4
	c-33.49-3.55-53.21-28.32-56.94-33.19"/>
<line class="st0" x1="183.91" y1="99.23" x2="184.43" y2="170.47"/>
<line class="st0" x1="190.52" y1="134.39" x2="221.96" y2="99.23"/>
<line class="st0" x1="226.3" y1="171.74" x2="189.84" y2="132.38"/>
<line class="st0" x1="129.11" y1="99.58" x2="163.58" y2="99.85"/>
<line class="st0" x1="165.28" y1="171.74" x2="130.81" y2="100.26"/>
<path class="st1" d="M113.45,169.96"/>
<path class="st1" d="M77.7,170.21"/>
<path class="st0" d="M67.74,171.3l0.38-1.2c3.57-10.13,7.15-20.26,10.72-30.4c4.43-13.37,8.85-26.73,13.28-40.1
	c7.36,23.5,14.72,47,22.09,70.5H76.11"/>
<path class="st0" d="M144.32,128.27c-2.2-0.02-7.16,0.26-11.81,3.56c-8.87,6.29-8.35,17.76-8.26,19.23
	c0.15,2.4,1.22,13.47,10.38,17.96c8.41,4.12,17.69-0.2,22.38-4.43c4.03-3.64,5.63-8.08,6.98-11.83c2.2-6.12,2.42-11.53,2.3-14.89"/>
</svg>
